{
  "accessors": [
    {
      "bufferView": 2,
      "componentType": 5126,
      "count": 422,
      "max": [
        0.0009222030639648438,
        6.62252140045166,
        0.06309843063354492
      ],
      "min": [
        -0.7643318176269531,
        -0.2801547050476074,
        -8.371617317199707
      ],
      "type": "VEC3"
    },
    {
      "bufferView": 2,
      "byteOffset": 5064,
      "componentType": 5126,
      "count": 422,
      "max": [
        1.0,
        1.0,
        1.0
      ],
      "min": [
        -1.0,
        -1.0,
        -1.0
      ],
      "type": "VEC3"
    },
    {
      "bufferView": 3,
      "componentType": 5126,
      "count": 422,
      "max": [
        0.987687885761261,
        1.0,
        1.0,
        1.0
      ],
      "min": [
        -0.9828234910964966,
        -1.0,
        -1.0,
        1.0
      ],
      "type": "VEC4"
    },
    {
      "bufferView": 1,
      "componentType": 5126,
      "count": 422,
      "max": [
        3.451890468597412,
        0.9933843612670898
      ],
      "min": [
        -2.503143787384033,
        0.00028157979249954224
      ],
      "type": "VEC2"
    },
    {
      "bufferView": 0,
      "componentType": 5125,
      "count": 1728,
      "type": "SCALAR"
    },
    {
      "bufferView": 2,
      "byteOffset": 10128,
      "componentType": 5126,
      "count": 422,
      "max": [
        0.001539766788482666,
        6.578608512878418,
        0.05929279327392578
      ],
      "min": [
        -0.7637145519256592,
        -0.3240671157836914,
        -3.585050106048584
      ],
      "type": "VEC3"
    },
    {
      "bufferView": 2,
      "byteOffset": 15192,
      "componentType": 5126,
      "count": 422,
      "max": [
        1.0,
        1.0,
        1.0
      ],
      "min": [
        -1.0,
        -1.0,
        -1.0
      ],
      "type": "VEC3"
    },
    {
      "bufferView": 3,
      "byteOffset": 6752,
      "componentType": 5126,
      "count": 422,
      "max": [
        0.9876885414123535,
        1.0,
        1.0,
        1.0
      ],
      "min": [
        -0.538395345211029,
        -1.0,
        -1.0,
        1.0
      ],
      "type": "VEC4"
    },
    {
      "bufferView": 1,
      "byteOffset": 3376,
      "componentType": 5126,
      "count": 422,
      "max": [
        3.4007599353790283,
        0.9964244365692139
      ],
      "min": [
        -1.5895066261291504,
        0.0002803932875394821
      ],
      "type": "VEC2"
    },
    {
      "bufferView": 0,
      "byteOffset": 6912,
      "componentType": 5125,
      "count": 1728,
      "type": "SCALAR"
    },
    {
      "bufferView": 2,
      "byteOffset": 20256,
      "componentType": 5126,
      "count": 235,
      "max": [
        5.3241848945617676e-05,
        6.556170463562012,
        3.438127279281616
      ],
      "min": [
        -0.7652010917663574,
        -0.34650564193725586,
        -0.06864839792251587
      ],
      "type": "VEC3"
    },
    {
      "bufferView": 2,
      "byteOffset": 23076,
      "componentType": 5126,
      "count": 235,
      "max": [
        1.0,
        1.0,
        1.0
      ],
      "min": [
        -1.0,
        -1.0,
        -1.0
      ],
      "type": "VEC3"
    },
    {
      "bufferView": 3,
      "byteOffset": 13504,
      "componentType": 5126,
      "count": 235,
      "max": [
        0.8910098075866699,
        1.0,
        1.0,
        1.0
      ],
      "min": [
        -0.9670816659927368,
        -1.0,
        -1.0,
        1.0
      ],
      "type": "VEC4"
    },
    {
      "bufferView": 1,
      "byteOffset": 6752,
      "componentType": 5126,
      "count": 235,
      "max": [
        2.575659990310669,
        0.9966059327125549
      ],
      "min": [
        -1.5954902172088623,
        -6.061047315597534e-05
      ],
      "type": "VEC2"
    },
    {
      "bufferView": 0,
      "byteOffset": 13824,
      "componentType": 5125,
      "count": 900,
      "type": "SCALAR"
    },
    {
      "bufferView": 2,
      "byteOffset": 25896,
      "componentType": 5126,
      "count": 781,
      "max": [
        0.06988160312175751,
        0.5007621049880981,
        3.7146294116973877
      ],
      "min": [
        -0.06820480525493622,
        -4.926621437072754,
        -0.03165954723954201
      ],
      "type": "VEC3"
    },
    {
      "bufferView": 2,
      "byteOffset": 35268,
      "componentType": 5126,
      "count": 781,
      "max": [
        1.0,
        1.0,
        1.0
      ],
      "min": [
        -1.0,
        -1.0,
        -1.0
      ],
      "type": "VEC3"
    },
    {
      "bufferView": 3,
      "byteOffset": 17264,
      "componentType": 5126,
      "count": 781,
      "max": [
        1.0,
        0.9999975562095642,
        0.9999998211860657,
        1.0
      ],
      "min": [
        -0.8962355852127075,
        -0.999997615814209,
        -1.0,
        1.0
      ],
      "type": "VEC4"
    },
    {
      "bufferView": 1,
      "byteOffset": 8632,
      "componentType": 5126,
      "count": 781,
      "max": [
        5.512048721313477,
        1.1202586889266968
      ],
      "min": [
        -4.5956573486328125,
        0.001494966447353363
      ],
      "type": "VEC2"
    },
    {
      "bufferView": 0,
      "byteOffset": 17424,
      "componentType": 5125,
      "count": 4044,
      "type": "SCALAR"
    },
    {
      "bufferView": 2,
      "byteOffset": 44640,
      "componentType": 5126,
      "count": 235,
      "max": [
        -2.70158052444458e-05,
        6.601273536682129,
        8.228012084960938
      ],
      "min": [
        -0.7652813196182251,
        -0.30140209197998047,
        -0.06913614273071289
      ],
      "type": "VEC3"
    },
    {
      "bufferView": 2,
      "byteOffset": 47460,
      "componentType": 5126,
      "count": 235,
      "max": [
        1.0,
        1.0,
        1.0
      ],
      "min": [
        -1.0,
        -1.0,
        -1.0
      ],
      "type": "VEC3"
    },
    {
      "bufferView": 3,
      "byteOffset": 29760,
      "componentType": 5126,
      "count": 235,
      "max": [
        0.5383954048156738,
        1.0,
        1.0,
        1.0
      ],
      "min": [
        -0.9670810699462891,
        -1.0,
        -1.0,
        1.0
      ],
      "type": "VEC4"
    },
    {
      "bufferView": 1,
      "byteOffset": 14880,
      "componentType": 5126,
      "count": 235,
      "max": [
        1.7252874374389648,
        0.9988776445388794
      ],
      "min": [
        -2.358121871948242,
        0.0011612530797719955
      ],
      "type": "VEC2"
    },
    {
      "bufferView": 0,
      "byteOffset": 33600,
      "componentType": 5125,
      "count": 900,
      "type": "SCALAR"
    }
  ],
  "asset": {
    "extras": {
      "author": "FrodoUndead (https://sketchfab.com/FrodoUndead)",
      "license": "CC-BY-4.0 (http://creativecommons.org/licenses/by/4.0/)",
      "source": "https://sketchfab.com/3d-models/modular-chain-link-fence-set-bd85a8005ff0403cab2f1e9845016b8f",
      "title": "Modular Chain Link Fence Set"
    },
    "generator": "Sketchfab-15.50.0",
    "version": "2.0"
  },
  "bufferViews": [
    {
      "buffer": 0,
      "byteLength": 37200,
      "name": "floatBufferViews",
      "target": 34963
    },
    {
      "buffer": 0,
      "byteLength": 16760,
      "byteOffset": 37200,
      "byteStride": 8,
      "name": "floatBufferViews",
      "target": 34962
    },
    {
      "buffer": 0,
      "byteLength": 50280,
      "byteOffset": 53960,
      "byteStride": 12,
      "name": "floatBufferViews",
      "target": 34962
    },
    {
      "buffer": 0,
      "byteLength": 33520,
      "byteOffset": 104240,
      "byteStride": 16,
      "name": "floatBufferViews",
      "target": 34962
    }
  ],
  "buffers": [
    {
      "byteLength": 137760,
      "uri": "scene.bin"
    }
  ],
  "images": [
    {
      "uri": "textures/Material.001_baseColor.png"
    },
    {
      "uri": "textures/Material.001_metallicRoughness.png"
    },
    {
      "uri": "textures/Material.001_normal.png"
    }
  ],
  "materials": [
    {
      "alphaCutoff": 0.1780350704388061,
      "alphaMode": "MASK",
      "name": "Material.001",
      "normalTexture": {
        "index": 2
      },
      "occlusionTexture": {
        "index": 1
      },
      "pbrMetallicRoughness": {
        "baseColorTexture": {
          "index": 0
        },
        "metallicFactor": 0.0,
        "metallicRoughnessTexture": {
          "index": 1
        },
        "roughnessFactor": 0.5
      }
    }
  ],
  "meshes": [
    {
      "name": "Object_0",
      "primitives": [
        {
          "attributes": {
            "NORMAL": 1,
            "POSITION": 0,
            "TANGENT": 2,
            "TEXCOORD_0": 3
          },
          "indices": 4,
          "material": 0,
          "mode": 4
        }
      ]
    },
    {
      "name": "Object_1",
      "primitives": [
        {
          "attributes": {
            "NORMAL": 6,
            "POSITION": 5,
            "TANGENT": 7,
            "TEXCOORD_0": 8
          },
          "indices": 9,
          "material": 0,
          "mode": 4
        }
      ]
    },
    {
      "name": "Object_2",
      "primitives": [
        {
          "attributes": {
            "NORMAL": 11,
            "POSITION": 10,
            "TANGENT": 12,
            "TEXCOORD_0": 13
          },
          "indices": 14,
          "material": 0,
          "mode": 4
        }
      ]
    },
    {
      "name": "Object_3",
      "primitives": [
        {
          "attributes": {
            "NORMAL": 16,
            "POSITION": 15,
            "TANGENT": 17,
            "TEXCOORD_0": 18
          },
          "indices": 19,
          "material": 0,
          "mode": 4
        }
      ]
    },
    {
      "name": "Object_4",
      "primitives": [
        {
          "attributes": {
            "NORMAL": 21,
            "POSITION": 20,
            "TANGENT": 22,
            "TEXCOORD_0": 23
          },
          "indices": 24,
          "material": 0,
          "mode": 4
        }
      ]
    }
  ],
  "nodes": [
    {
      "children": [
        1
      ],
      "matrix": [
        1.0,
        0.0,
        0.0,
        0.0,
        0.0,
        2.220446049250313e-16,
        -1.0,
        0.0,
        0.0,
        1.0,
        2.220446049250313e-16,
        0.0,
        0.0,
        0.0,
        0.0,
        1.0
      ],
      "name": "Sketchfab_model"
    },
    {
      "children": [
        2
      ],
      "name": "root"
    },
    {
      "children": [
        3,
        5,
        7,
        9,
        11
      ],
      "matrix": [
        1.0,
        0.0,
        0.0,
        0.0,
        0.0,
        2.220446049250313e-16,
        1.0,
        0.0,
        0.0,
        -1.0,
        2.220446049250313e-16,
        0.0,
        0.0,
        0.0,
        0.0,
        1.0
      ],
      "name": "GLTF_SceneRootNode"
    },
    {
      "children": [
        4
      ],
      "matrix": [
        1.0,
        0.0,
        0.0,
        0.0,
        0.0,
        1.0,
        0.0,
        0.0,
        0.0,
        0.0,
        1.0,
        0.0,
        0.13530874252319336,
        -2.8684964179992676,
        -5.509210586547852,
        1.0
      ],
      "name": "Cube.002_0"
    },
    {
      "mesh": 0,
      "name": "Object_4"
    },
    {
      "children": [
        6
      ],
      "matrix": [
        1.0,
        0.0,
        0.0,
        0.0,
        0.0,
        1.0,
        0.0,
        0.0,
        0.0,
        0.0,
        1.0,
        0.0,
        0.1346912384033203,
        -2.8245840072631836,
        8.410238265991211,
        1.0
      ],
      "name": "Cube.005_1"
    },
    {
      "mesh": 1,
      "name": "Object_6"
    },
    {
      "children": [
        8
      ],
      "matrix": [
        1.0,
        0.0,
        0.0,
        0.0,
        0.0,
        1.0,
        0.0,
        0.0,
        0.0,
        0.0,
        1.0,
        0.0,
        0.1589953750371933,
        -2.802145481109619,
        9.35369873046875,
        1.0
      ],
      "name": "Cube.007_2"
    },
    {
      "mesh": 2,
      "name": "Object_8"
    },
    {
      "children": [
        10
      ],
      "matrix": [
        1.0,
        0.0,
        0.0,
        0.0,
        0.0,
        1.0,
        0.0,
        0.0,
        0.0,
        0.0,
        1.0,
        0.0,
        0.01882094144821167,
        2.1990065574645996,
        13.555553436279297,
        1.0
      ],
      "name": "Cube.008_3"
    },
    {
      "mesh": 3,
      "name": "Object_10"
    },
    {
      "children": [
        12
      ],
      "matrix": [
        1.0,
        0.0,
        0.0,
        0.0,
        0.0,
        1.0,
        0.0,
        0.0,
        0.0,
        0.0,
        1.0,
        0.0,
        0.06907021999359131,
        -2.8472490310668945,
        -4.142078876495361,
        1.0
      ],
      "name": "Cylinder.007_4"
    },
    {
      "mesh": 4,
      "name": "Object_12"
    }
  ],
  "samplers": [
    {
      "magFilter": 9729,
      "minFilter": 9987,
      "wrapS": 10497,
      "wrapT": 10497
    }
  ],
  "scene": 0,
  "scenes": [
    {
      "name": "Sketchfab_Scene",
      "nodes": [
        0
      ]
    }
  ],
  "textures": [
    {
      "sampler": 0,
      "source": 0
    },
    {
      "sampler": 0,
      "source": 1
    },
    {
      "sampler": 0,
      "source": 2
    }
  ]
}
